<svg width="104" height="24" viewBox="0 0 104 24" fill="none" xmlns="http://www.w3.org/2000/svg">
<path d="M102.54 6.42C102.421 5.94541 102.179 5.51057 101.839 5.15941C101.498 4.80824 101.071 4.55318 100.6 4.42C98.8801 4 92.0001 4 92.0001 4C92.0001 4 85.1201 4 83.4001 4.46C82.9293 4.59318 82.5021 4.84824 82.1614 5.19941C81.8208 5.55057 81.5789 5.98541 81.4601 6.46C81.1453 8.20556 80.9913 9.97631 81.0001 11.75C80.9889 13.537 81.1429 15.3213 81.4601 17.08C81.591 17.5398 81.8384 17.9581 82.1782 18.2945C82.5181 18.6308 82.9389 18.8738 83.4001 19C85.1201 19.46 92.0001 19.46 92.0001 19.46C92.0001 19.46 98.8801 19.46 100.6 19C101.071 18.8668 101.498 18.6118 101.839 18.2606C102.179 17.9094 102.421 17.4746 102.54 17C102.852 15.2676 103.006 13.5103 103 11.75C103.011 9.96295 102.857 8.1787 102.54 6.42Z" stroke="#23A6F0" stroke-width="2" stroke-linecap="round" stroke-linejoin="round"/>
<path d="M89.75 15.0205L95.5 11.7505L89.75 8.48047V15.0205Z" stroke="#23A6F0" stroke-width="2" stroke-linecap="round" stroke-linejoin="round"/>
<path d="M58 2H55C53.6739 2 52.4021 2.52678 51.4645 3.46447C50.5268 4.40215 50 5.67392 50 7V10H47V14H50V22H54V14H57L58 10H54V7C54 6.73478 54.1054 6.48043 54.2929 6.29289C54.4804 6.10536 54.7348 6 55 6H58V2Z" stroke="#23A6F0" stroke-width="2" stroke-linecap="round" stroke-linejoin="round"/>
<path d="M17 2H7C4.23858 2 2 4.23858 2 7V17C2 19.7614 4.23858 22 7 22H17C19.7614 22 22 19.7614 22 17V7C22 4.23858 19.7614 2 17 2Z" stroke="#23A6F0" stroke-width="2" stroke-linecap="round" stroke-linejoin="round"/>
<path d="M16.0002 11.3703C16.1236 12.2025 15.9815 13.0525 15.594 13.7993C15.2065 14.5461 14.5933 15.1517 13.8418 15.53C13.0903 15.9082 12.2386 16.0399 11.408 15.9062C10.5773 15.7726 9.80996 15.3804 9.21503 14.7855C8.62011 14.1905 8.22793 13.4232 8.09426 12.5925C7.9606 11.7619 8.09226 10.9102 8.47052 10.1587C8.84878 9.40716 9.45438 8.79404 10.2012 8.40654C10.948 8.01904 11.7979 7.87689 12.6302 8.0003C13.4791 8.12619 14.265 8.52176 14.8719 9.12861C15.4787 9.73545 15.8743 10.5214 16.0002 11.3703Z" stroke="#23A6F0" stroke-width="2" stroke-linecap="round" stroke-linejoin="round"/>
<path d="M17.5 6.5H17.51" stroke="#23A6F0" stroke-width="2" stroke-linecap="round" stroke-linejoin="round"/>
</svg>
